<svg xmlns="http://www.w3.org/2000/svg" viewBox="0 0 425.58 85.79"><title>Dakota Arseneault_3</title><g id="Layer_2" data-name="Layer 2"><g id="Layer_1-2" data-name="Layer 1"><path d="M53.87,19.94c-.6,28.1-22.3,51.5-49.3,56.6-4.61.9-6.51-6.1-2-7,19.7-3.7,36.1-17.3,41.9-36.8,2.7-8.9,5.6-27.6-9.6-25.3-.6.1-1.2.3-1.8.4a4.36,4.36,0,0,1,.1,2c-3,16.2-6,32.3-9,48.5-.9,4.6-7.8,2.7-7-1.9,2.8-15.4,5.7-30.7,8.5-46.1-6.1,2.7-12.1,7.2-14.5,12.5-1.9,4.2-8.2.5-6.3-3.7,4.7-10.3,19.8-18,30.6-19C47.77-1,54.17,8.44,53.87,19.94Z"/><path d="M73.57,65.24a3.39,3.39,0,0,1-4.3-3.2c.3-4.3.6-8.7.9-13-5.2,8.4-12.2,15.5-18.7,9.9-4.6-4-2.8-11.9-.6-16.6A27,27,0,0,1,65,28.44c3.9-1.6,7.3,4.1,3.4,5.8a21.84,21.84,0,0,0-9.8,7.7,21.39,21.39,0,0,0-2.5,5.3c-.7,2.3-1.9,4.5.9,4.9,3.7.6,7.7-6.9,9.4-9.7a48.89,48.89,0,0,0,5-11.5c1-3.5,6.8-3,6.5.9-.5,8.9-1.1,17.8-1.6,26.7C77.17,64.14,75.67,64.74,73.57,65.24Z"/><path d="M99.27,31.94c-3.11,2.3-6.11,4.6-9,7.1.7,1.1,1.2,2.3,1.9,3.6q3.3,6.15,6.61,12.3c2,3.8-3.81,7.2-5.81,3.4l-4.7-8.8c-.9-1.6-1.7-3.9-2.8-5.8-.2,4.8-.4,9.7-.4,14.5.1,4.3-6.6,4.3-6.6,0a251.24,251.24,0,0,1,5.5-54c.9-4.2,7.4-2.4,6.5,1.8a216.47,216.47,0,0,0-4.2,27.6q4.65-3.75,9.6-7.5C99.37,23.64,102.67,29.44,99.27,31.94Z"/><path d="M114.56,61.24c-6.4.8-13.1-2.4-13.3-9.5-.2-7.6,4.6-15.4,10.5-19.7.1-.1.2-.1.2-.2-1.5-2.8,1.4-7,4.4-4.7C126.86,35.34,133.46,58.84,114.56,61.24Zm1.7-24.8a3.48,3.48,0,0,1-1.1,1.3,18.34,18.34,0,0,0-6.3,9.4c-.7,2.1-1.8,5.2.4,6.9,1.5,1.1,4.7.7,6.2.1C123.06,51.24,120.36,42.14,116.26,36.44Z"/><path d="M147,21.44a60.48,60.48,0,0,0-8.5.4c-3.6,11.1-3.2,31.6,2,41.4,2.1,3.8-3.7,7.1-5.7,3.3-5.9-10.9-6.9-32-3.4-43.9-2.3.2-4.6.4-7,.5-4.3,0-4.3-6.7,0-6.7,3.1-.1,6.2-.4,9.3-.7,1.4-4.2,3-8.1,4.5-11.9s8-2.2,6.4,1.8c-1.1,2.9-2.4,6-3.6,9.3a40.12,40.12,0,0,1,6-.2C151.26,14.84,151.26,21.54,147,21.44Z"/><path d="M166,65.24a3.39,3.39,0,0,1-4.3-3.2c.3-4.3.6-8.7.9-13-5.2,8.4-12.2,15.5-18.7,9.9-4.6-4-2.8-11.9-.6-16.6a27,27,0,0,1,14.1-13.9c3.9-1.6,7.3,4.1,3.4,5.8a21.84,21.84,0,0,0-9.8,7.7,21.39,21.39,0,0,0-2.5,5.3c-.7,2.3-1.9,4.5.9,4.9,3.7.6,7.7-6.9,9.4-9.7a48.89,48.89,0,0,0,5-11.5c1-3.5,6.8-3,6.5.9-.5,8.9-1.1,17.8-1.6,26.7C169.56,64.14,168.06,64.74,166,65.24Z"/><path d="M228.76,34.64l-3.2.3c-.5,11.4-.9,35.9-1,47.4-.1,4.6-7.4,4.6-7.3,0,.2-10.1.2-33,.8-43,0-1.3.1-2.5.2-3.7-3.4.4-6.8,1-10.2,1.7-2.7,9.1-5.1,18.3-7.1,27.6-1,4.6-8,2.7-7-1.9,1.7-7.9,3.7-15.7,5.9-23.5a42.27,42.27,0,0,0-6.9,2.4c-4.2,1.9-7.9-4.4-3.7-6.2a74.74,74.74,0,0,1,13-4.3c2.5-8,5.2-15.9,8.2-23.7a3.13,3.13,0,0,1,.7-3.8,8.7,8.7,0,0,1,1.1-.9,1.42,1.42,0,0,1,.2-.6c1.4-3.5,6.2-2.9,7.1-.3a6.25,6.25,0,0,1,2,1.3c3.9,3.3,3.7,9.8,4,14.5.2,3.2.2,6.5.2,9.7,1-.1,2-.2,3-.2C233.46,27.24,233.46,34.54,228.76,34.64Zm-10.3-6.3v-4.7c0-1.9-.1-3.8-.2-5.7a60.77,60.77,0,0,0-1.2-7.5c-2.3,6.3-4.5,12.7-6.6,19.1C213.16,29,215.76,28.64,218.46,28.34Z"/><path d="M248.56,37.54c-.9-.2-3.6,2.6-4.4,3.2a16.57,16.57,0,0,0-3.8,4.9c-2,4-2.1,8.8-2.5,13.3-.3,3.8-6.5,3-6.7-.9a218.15,218.15,0,0,1,.4-24.3c.3-4.4,7.1-2.5,6.7,1.8a1.7,1.7,0,0,1-.1.7c3-3.1,7-6.2,11.3-5.4S252.86,38.34,248.56,37.54Z"/><path d="M260.16,34.54c-4.7-.7,3.1,12,3.5,12.7a10,10,0,0,1,.8,7.4c-1.8,5.4-7.8,8.1-13.2,8-4.2-.1-4.9-6.8-.6-6.7s8.2-1,6.3-6.8c-.4-1.3-1.8-2.6-2.4-3.7a16.26,16.26,0,0,1-2.4-9c.3-5.2,3.8-9.2,9.1-8.6C265.56,28.44,264.36,34.94,260.16,34.54Z"/><path d="M274.16,51.24c1,3.4,3.2,6.9,6.1,3.3,2.8-3.3,7.5,1.5,4.8,4.8-6.9,8.3-16.3.6-17.8-7.8a2,2,0,0,1-.1-.7,7.91,7.91,0,0,1-2.4-2.1c-2.1-2.6.4-6.2,2.9-5.8,1.4-5.5,5-10.5,10.3-12.7,3.1-1.3,7.2-1.4,9.6,1.4,2.8,3.3,1,8.1-1.2,11.2A24.57,24.57,0,0,1,274.16,51.24ZM282,36c-.9-.7-4,2.1-4.3,2.4a13.38,13.38,0,0,0-3.4,5.7,19.56,19.56,0,0,0,5.9-4.3C280.76,39.24,283,36.84,282,36Z"/><path d="M313.26,60.74c.2,4.3-6.5,4.3-6.7,0-.2-5.1.1-10.2.3-15.3.1-2.2.2-4.4.2-6.6v-.7c-1.2,1.3-2.6,2.7-3.2,3.4a38.8,38.8,0,0,0-3,4.8,47.9,47.9,0,0,0-4.7,13.3c-.8,3.9-6.4,2.7-6.6-.9-.5-9.1,1.89-17.7,2.1-26.7.1-4.3,6.8-4.3,6.7,0a44.82,44.82,0,0,1-.5,6.4c2.5-3.6,6.5-9.9,10.8-10.6,5.4-.9,5.1,5.4,5.1,8.8C313.86,44.74,313,52.74,313.26,60.74Z"/><path d="M322.65,51.24c1,3.4,3.2,6.9,6.1,3.3,2.8-3.3,7.5,1.5,4.8,4.8-6.9,8.3-16.3.6-17.8-7.8a2,2,0,0,1-.1-.7,7.91,7.91,0,0,1-2.4-2.1c-2.1-2.6.4-6.2,2.9-5.8,1.4-5.5,5-10.5,10.3-12.7,3.1-1.3,7.21-1.4,9.61,1.4,2.8,3.3,1,8.1-1.2,11.2A24.64,24.64,0,0,1,322.65,51.24Zm7.8-15.2c-.9-.7-4,2.1-4.3,2.4a13.38,13.38,0,0,0-3.4,5.7,19.62,19.62,0,0,0,5.91-4.3C329.25,39.24,331.45,36.84,330.45,36Z"/><path d="M362,65.24a3.39,3.39,0,0,1-4.3-3.2c.3-4.3.6-8.7.9-13-5.2,8.4-12.2,15.5-18.7,9.9-4.6-4-2.8-11.9-.6-16.6a27,27,0,0,1,14.1-13.9c3.9-1.6,7.3,4.1,3.4,5.8a21.84,21.84,0,0,0-9.8,7.7,21.39,21.39,0,0,0-2.5,5.3c-.7,2.3-1.9,4.5.9,4.9,3.7.6,7.7-6.9,9.4-9.7a48.89,48.89,0,0,0,5-11.5c1-3.5,6.8-3,6.5.9-.5,8.9-1.09,17.8-1.59,26.7C365.55,64.14,364.05,64.74,362,65.24Z"/><path d="M378.05,34.54a36.18,36.18,0,0,0-4.3,11.9c-.2,1.1-.8,5.3-.2,6.6,1.5,2.9,4.6,2.2,6.4.5,5.6-5.3,5.3-16.4,5.3-23.4-.1-4.3,6.6-4.3,6.7,0,0,10.1-1.2,32.6-16.1,32-15.3-.7-7.7-23.5-3.6-31C374.35,27.34,380.15,30.74,378.05,34.54Z"/><path d="M401.45,10.64a327.74,327.74,0,0,0-1.2,47.5c.3,4.3-6.4,4.7-6.7.4A336.26,336.26,0,0,1,395,9.34C395.25,5,401.85,6.44,401.45,10.64Z"/><path d="M422.35,21.44a60.48,60.48,0,0,0-8.5.4c-3.6,11.1-3.2,31.6,2,41.4,2.1,3.8-3.7,7.1-5.7,3.3-5.9-10.9-6.9-32-3.4-43.9-2.3.2-4.6.4-7,.5-4.3,0-4.3-6.7,0-6.7,3.1-.1,6.2-.4,9.3-.7,1.4-4.2,3-8.1,4.5-11.9s8-2.2,6.4,1.8c-1.1,2.9-2.4,6-3.6,9.3a40.12,40.12,0,0,1,6-.2C426.65,14.84,426.65,21.54,422.35,21.44Z"/></g></g></svg>